<svg width="128" height="128" viewBox="0 0 128 128" fill="none" xmlns="http://www.w3.org/2000/svg">
<rect width="128" height="128" fill="white"/>
<path d="M102 59L78 77" stroke="#C8F7FA"/>
<rect width="128" height="128" fill="#2E2E2E"/>
<path d="M26.8324 47.8898V45.443H14.2885V47.8898H19.0218V61H22.0349V47.8898H26.8324ZM36.6196 56.9398C36.6196 57.2176 36.5626 57.474 36.4486 57.7091C36.3347 57.937 36.1708 58.1329 35.9571 58.2968C35.7435 58.4606 35.4799 58.5888 35.1665 58.6814C34.8602 58.774 34.5076 58.8203 34.1087 58.8203C33.6599 58.8203 33.2468 58.7705 32.8693 58.6707C32.4989 58.571 32.1819 58.4143 31.9183 58.2006C31.6476 57.9869 31.4375 57.7127 31.2879 57.3779C31.1383 57.0431 31.0564 56.6406 31.0422 56.1705H28.0932C28.0932 56.9754 28.2463 57.677 28.5526 58.2754C28.866 58.8737 29.2899 59.3937 29.8241 59.8354C30.3868 60.2841 31.0457 60.626 31.8008 60.8611C32.563 61.089 33.3323 61.203 34.1087 61.203C34.8994 61.203 35.6295 61.1104 36.2991 60.9252C36.9686 60.7329 37.5456 60.4515 38.03 60.0811C38.5144 59.7178 38.8919 59.2726 39.1626 58.7455C39.4404 58.2113 39.5793 57.6023 39.5793 56.9184C39.5793 56.1278 39.3976 55.4297 39.0344 54.8242C38.6711 54.2188 38.1831 53.6881 37.5705 53.2322C37.1645 52.9544 36.7193 52.7086 36.2349 52.4949C35.7506 52.2813 35.2413 52.0996 34.707 51.95C34.2084 51.8147 33.7597 51.6687 33.3608 51.5119C32.969 51.3552 32.6342 51.1807 32.3564 50.9884C32.0786 50.8032 31.8649 50.5931 31.7153 50.358C31.5728 50.1229 31.5016 49.8594 31.5016 49.5673C31.5016 49.2895 31.555 49.0331 31.6619 48.798C31.7759 48.5558 31.9397 48.3457 32.1534 48.1676C32.3671 47.9967 32.6271 47.8649 32.9334 47.7723C33.2468 47.6726 33.6029 47.6227 34.0018 47.6227C34.4364 47.6227 34.8139 47.6832 35.1344 47.8043C35.4621 47.9183 35.7363 48.0786 35.9571 48.2852C36.1708 48.4989 36.3311 48.7517 36.438 49.0438C36.5519 49.3358 36.616 49.6564 36.6303 50.0054H39.5579C39.5579 49.3073 39.4226 48.6662 39.1519 48.0821C38.8812 47.498 38.5037 46.9923 38.0193 46.5649C37.5349 46.1446 36.9544 45.817 36.2777 45.5819C35.6081 45.3469 34.8673 45.2293 34.0553 45.2293C33.2717 45.2293 32.5452 45.3326 31.8756 45.5392C31.206 45.7386 30.6255 46.0271 30.134 46.4046C29.6425 46.7822 29.2578 47.2381 28.98 47.7723C28.7022 48.3065 28.5633 48.9013 28.5633 49.5566C28.5633 50.1265 28.6666 50.6536 28.8732 51.138C29.0869 51.6224 29.4003 52.064 29.8134 52.4629C30.2266 52.8618 30.7572 53.2286 31.4054 53.5634C32.0608 53.8982 32.8194 54.1831 33.6813 54.4182C34.2369 54.5678 34.6999 54.7316 35.0703 54.9097C35.4478 55.0807 35.7541 55.2694 35.9892 55.476C36.2171 55.6897 36.3774 55.9176 36.47 56.1598C36.5697 56.402 36.6196 56.662 36.6196 56.9398Z" fill="#B05279"/>
<path d="M47.2612 51.5536H45.8119V61H47.3485V53.4831C47.3834 53.3899 47.4271 53.3026 47.4795 53.2212C47.5377 53.1397 47.6046 53.0669 47.6803 53.0029C47.7792 52.9214 47.8985 52.8603 48.0382 52.8196C48.1837 52.773 48.3525 52.7497 48.5446 52.7497C48.7192 52.7497 48.8705 52.773 48.9986 52.8196C49.1324 52.8603 49.243 52.9272 49.3303 53.0204C49.4234 53.1193 49.4904 53.2444 49.5311 53.3958C49.5777 53.5471 49.601 53.7217 49.601 53.9196V61H51.1375V53.9283C51.1375 53.8934 51.1375 53.8643 51.1375 53.841C51.1375 53.8119 51.1375 53.7828 51.1375 53.7537C51.155 53.6082 51.1899 53.4772 51.2423 53.3608C51.2947 53.2386 51.3674 53.1309 51.4605 53.0378C51.5537 52.9505 51.6701 52.8807 51.8098 52.8283C51.9495 52.7759 52.1153 52.7497 52.3074 52.7497C52.4878 52.7497 52.645 52.773 52.7788 52.8196C52.9185 52.8661 53.0349 52.936 53.1281 53.0291C53.2154 53.128 53.2823 53.2532 53.3289 53.4045C53.3754 53.5558 53.3987 53.7304 53.3987 53.9283V61H54.9353V53.9458C54.9353 53.4918 54.8829 53.0989 54.7781 52.7672C54.6734 52.4296 54.522 52.156 54.3241 51.9465C54.1437 51.7603 53.9225 51.6206 53.6606 51.5274C53.3987 51.4285 53.1048 51.379 52.7788 51.379C52.5402 51.3848 52.319 51.4169 52.1153 51.4751C51.9174 51.5333 51.737 51.6118 51.574 51.7108C51.446 51.7981 51.3267 51.8999 51.2161 52.0163C51.1055 52.1328 51.0095 52.2579 50.928 52.3918C50.864 52.2463 50.7854 52.1153 50.6923 51.9989C50.605 51.8825 50.506 51.7835 50.3954 51.7021C50.2441 51.5973 50.0666 51.5187 49.8629 51.4663C49.665 51.4081 49.4409 51.379 49.1906 51.379C48.7483 51.3848 48.37 51.4809 48.0557 51.6671C47.7472 51.8534 47.4969 52.1124 47.3048 52.4441L47.2612 51.5536ZM63.4649 61H65.1499V60.8603C65.0452 60.5984 64.9637 60.2928 64.9055 59.9436C64.8473 59.5886 64.8182 59.2539 64.8182 58.9396V54.5482C64.8182 54.0185 64.7221 53.5558 64.5301 53.16C64.338 52.7643 64.0761 52.4325 63.7443 52.1648C63.4067 51.9029 63.008 51.7079 62.5482 51.5798C62.0884 51.446 61.5908 51.379 61.0553 51.379C60.4675 51.379 59.9407 51.4605 59.4751 51.6235C59.0153 51.7864 58.6254 51.9989 58.3052 52.2608C57.9793 52.5285 57.729 52.8283 57.5544 53.16C57.3856 53.4918 57.2983 53.8294 57.2925 54.1728H58.9164C58.9164 53.9749 58.9629 53.7857 59.0561 53.6053C59.155 53.419 59.2918 53.259 59.4664 53.1251C59.641 52.9913 59.8534 52.8836 60.1037 52.8021C60.3598 52.7206 60.6479 52.6799 60.968 52.6799C61.3114 52.6799 61.6199 52.7235 61.8935 52.8108C62.1728 52.8981 62.4086 53.0204 62.6006 53.1775C62.7927 53.3405 62.9411 53.5354 63.0459 53.7624C63.1506 53.9894 63.203 54.2455 63.203 54.5307V55.2728H61.4395C60.7818 55.2728 60.1852 55.3368 59.6497 55.4649C59.1201 55.5929 58.6661 55.785 58.2878 56.0411C57.9095 56.303 57.6155 56.6289 57.406 57.0189C57.2023 57.4089 57.1004 57.8629 57.1004 58.3809C57.1004 58.7766 57.1761 59.1462 57.3274 59.4896C57.4846 59.8272 57.7057 60.1182 57.9909 60.3627C58.2703 60.6129 58.6108 60.8108 59.0124 60.9563C59.4198 61.1019 59.8738 61.1746 60.3744 61.1746C60.6828 61.1746 60.9738 61.1426 61.2474 61.0786C61.521 61.0146 61.78 60.9272 62.0244 60.8167C62.263 60.7061 62.4813 60.578 62.6792 60.4325C62.8829 60.287 63.0662 60.1328 63.2292 59.9698C63.2467 60.1677 63.2729 60.3598 63.3078 60.546C63.3485 60.7264 63.4009 60.8778 63.4649 61ZM60.6101 59.769C60.2958 59.769 60.0193 59.7283 59.7807 59.6468C59.542 59.5653 59.3442 59.4518 59.187 59.3063C59.0299 59.1666 58.9105 58.9978 58.8291 58.7999C58.7534 58.602 58.7156 58.3867 58.7156 58.1539C58.7156 57.9094 58.7592 57.6912 58.8465 57.4991C58.9396 57.307 59.0735 57.1411 59.2481 57.0014C59.4926 56.8036 59.8214 56.658 60.2347 56.5649C60.6537 56.466 61.1426 56.4165 61.7014 56.4165H63.203V58.3285C63.1099 58.5147 62.9819 58.6952 62.8189 58.8698C62.6559 59.0386 62.4638 59.1899 62.2427 59.3238C62.0157 59.4576 61.7654 59.5653 61.4919 59.6468C61.2183 59.7283 60.9244 59.769 60.6101 59.769ZM67.9961 61H69.6112V54.2252C69.7218 54.0214 69.8498 53.8352 69.9953 53.6664C70.1467 53.4976 70.3096 53.3492 70.4842 53.2212C70.6996 53.0756 70.9353 52.9621 71.1914 52.8807C71.4475 52.7934 71.724 52.7497 72.0208 52.7497C72.3642 52.7497 72.6669 52.7904 72.9288 52.8719C73.1965 52.9534 73.4235 53.0844 73.6097 53.2648C73.7902 53.4452 73.927 53.681 74.0201 53.972C74.1132 54.263 74.1598 54.618 74.1598 55.0371V61H75.7749V55.0022C75.7749 54.3736 75.6963 53.8323 75.5392 53.3783C75.3878 52.9185 75.1696 52.5402 74.8844 52.2433C74.5992 51.9465 74.2529 51.7282 73.8455 51.5886C73.4439 51.4489 72.9957 51.379 72.501 51.379C72.1343 51.3848 71.7851 51.4401 71.4533 51.5449C71.1274 51.6438 70.8247 51.7864 70.5453 51.9727C70.3591 52.0949 70.1816 52.2404 70.0128 52.4092C69.8498 52.5722 69.6985 52.7526 69.5588 52.9505L69.4453 51.5536H67.9961V61ZM78.9877 51.5536V52.9592H82.2005V59.6031H78.9877V61H86.8975V59.6031H83.8157V51.5536H78.9877ZM81.991 49.0742C81.991 49.3361 82.0696 49.5544 82.2267 49.729C82.3897 49.9036 82.6341 49.9909 82.9601 49.9909C83.2802 49.9909 83.5217 49.9036 83.6847 49.729C83.8477 49.5544 83.9292 49.3361 83.9292 49.0742C83.9292 48.9287 83.9059 48.7948 83.8593 48.6726C83.8128 48.5504 83.7429 48.4485 83.6498 48.367C83.5741 48.2913 83.4781 48.2331 83.3617 48.1924C83.2453 48.1458 83.1114 48.1226 82.9601 48.1226C82.8087 48.1226 82.672 48.1458 82.5497 48.1924C82.4333 48.2331 82.3373 48.2913 82.2616 48.367C82.1685 48.4543 82.0987 48.5591 82.0521 48.6813C82.0114 48.8035 81.991 48.9345 81.991 49.0742ZM95.6978 61H97.1645V51.5536H95.5407V58.3285C95.4534 58.5322 95.3428 58.7213 95.2089 58.896C95.0809 59.0647 94.9295 59.2103 94.7549 59.3325C94.5454 59.4838 94.298 59.6031 94.0128 59.6904C93.7277 59.7719 93.4046 59.8127 93.0438 59.8127C92.7353 59.8127 92.4617 59.7719 92.2231 59.6904C91.9903 59.6089 91.7924 59.4663 91.6294 59.2626C91.4665 59.0647 91.3442 58.797 91.2628 58.4594C91.1813 58.1219 91.1405 57.697 91.1405 57.1848V51.5536H89.5254V57.1673C89.5254 57.8716 89.6011 58.4769 89.7524 58.9833C89.9095 59.4838 90.1307 59.8971 90.4159 60.223C90.7011 60.5489 91.0445 60.7905 91.4461 60.9476C91.8477 61.0989 92.2959 61.1746 92.7906 61.1746C93.4075 61.1746 93.9517 61.0466 94.4232 60.7905C94.8946 60.5286 95.2875 60.1648 95.6018 59.6992L95.6978 61ZM100.954 51.5536H99.5043V61H101.041V53.4831C101.076 53.3899 101.119 53.3026 101.172 53.2212C101.23 53.1397 101.297 53.0669 101.373 53.0029C101.472 52.9214 101.591 52.8603 101.731 52.8196C101.876 52.773 102.045 52.7497 102.237 52.7497C102.412 52.7497 102.563 52.773 102.691 52.8196C102.825 52.8603 102.935 52.9272 103.023 53.0204C103.116 53.1193 103.183 53.2444 103.223 53.3958C103.27 53.5471 103.293 53.7217 103.293 53.9196V61H104.83V53.9283C104.83 53.8934 104.83 53.8643 104.83 53.841C104.83 53.8119 104.83 53.7828 104.83 53.7537C104.847 53.6082 104.882 53.4772 104.935 53.3608C104.987 53.2386 105.06 53.1309 105.153 53.0378C105.246 52.9505 105.362 52.8807 105.502 52.8283C105.642 52.7759 105.808 52.7497 106 52.7497C106.18 52.7497 106.337 52.773 106.471 52.8196C106.611 52.8661 106.727 52.936 106.82 53.0291C106.908 53.128 106.975 53.2532 107.021 53.4045C107.068 53.5558 107.091 53.7304 107.091 53.9283V61H108.628V53.9458C108.628 53.4918 108.575 53.0989 108.471 52.7672C108.366 52.4296 108.214 52.156 108.017 51.9465C107.836 51.7603 107.615 51.6206 107.353 51.5274C107.091 51.4285 106.797 51.379 106.471 51.379C106.233 51.3848 106.011 51.4169 105.808 51.4751C105.61 51.5333 105.429 51.6118 105.266 51.7108C105.138 51.7981 105.019 51.8999 104.908 52.0163C104.798 52.1328 104.702 52.2579 104.62 52.3918C104.556 52.2463 104.478 52.1153 104.385 51.9989C104.297 51.8825 104.198 51.7835 104.088 51.7021C103.936 51.5973 103.759 51.5187 103.555 51.4663C103.357 51.4081 103.133 51.379 102.883 51.379C102.441 51.3848 102.062 51.4809 101.748 51.6671C101.44 51.8534 101.189 52.1124 100.997 52.4441L100.954 51.5536Z" fill="#D6D6D6"/>
<path d="M21.7963 82.4944C21.7963 82.6457 21.7672 82.7883 21.709 82.9221C21.6508 83.056 21.5664 83.1782 21.4558 83.2888C21.2754 83.4693 21.0251 83.6119 20.705 83.7166C20.3849 83.8156 20.0095 83.865 19.5788 83.865C19.3052 83.865 19.0287 83.8359 18.7494 83.7777C18.47 83.7195 18.2168 83.6206 17.9898 83.4809C17.757 83.3412 17.562 83.1579 17.4049 82.9309C17.2536 82.7039 17.1662 82.4245 17.143 82.0928H15.5278C15.5278 82.4944 15.618 82.8814 15.7985 83.2539C15.9847 83.6264 16.2525 83.9523 16.6017 84.2317C16.9451 84.5169 17.3671 84.7468 17.8676 84.9214C18.3681 85.0902 18.9385 85.1746 19.5788 85.1746C20.1375 85.1746 20.6526 85.1077 21.1241 84.9738C21.5955 84.8399 22 84.6508 22.3376 84.4063C22.6752 84.1619 22.9371 83.8679 23.1233 83.5246C23.3154 83.1812 23.4114 82.7999 23.4114 82.3809C23.4114 81.9909 23.3271 81.6475 23.1583 81.3507C22.9953 81.0538 22.7567 80.7919 22.4424 80.5649C22.1281 80.3438 21.741 80.1546 21.2812 79.9974C20.8214 79.8345 20.3005 79.6919 19.7185 79.5696C19.2761 79.4823 18.9094 79.3921 18.6184 79.299C18.3332 79.2059 18.1062 79.1011 17.9374 78.9847C17.7628 78.8683 17.6406 78.7373 17.5708 78.5918C17.5009 78.4463 17.466 78.2804 17.466 78.0942C17.466 77.9138 17.5096 77.7392 17.597 77.5704C17.6843 77.4016 17.8152 77.2532 17.9898 77.1251C18.1586 76.9971 18.3711 76.8952 18.6271 76.8196C18.8891 76.7439 19.1917 76.7061 19.5351 76.7061C19.8669 76.7061 20.1637 76.7526 20.4256 76.8457C20.6934 76.9389 20.9204 77.0611 21.1066 77.2124C21.2929 77.3638 21.4384 77.5384 21.5431 77.7363C21.6479 77.9283 21.7003 78.1262 21.7003 78.3299H23.3154C23.3154 77.9167 23.2252 77.5325 23.0448 77.1775C22.8702 76.8166 22.6199 76.5023 22.2939 76.2346C21.968 75.9669 21.5722 75.7573 21.1066 75.606C20.641 75.4547 20.1171 75.379 19.5351 75.379C18.9938 75.379 18.4962 75.4518 18.0422 75.5973C17.594 75.7428 17.207 75.9407 16.8811 76.191C16.5551 76.4412 16.3019 76.7352 16.1215 77.0727C15.9411 77.4045 15.8509 77.7624 15.8509 78.1466C15.8509 78.5365 15.9382 78.8799 16.1128 79.1768C16.2874 79.4678 16.5347 79.721 16.8549 79.9363C17.1692 80.1575 17.5475 80.3467 17.9898 80.5038C18.438 80.661 18.9327 80.7948 19.474 80.9054C19.9163 80.9927 20.2859 81.0917 20.5828 81.2022C20.8796 81.307 21.1182 81.4234 21.2987 81.5515C21.4791 81.6795 21.6071 81.8221 21.6828 81.9793C21.7585 82.1306 21.7963 82.3023 21.7963 82.4944ZM26.2576 85H27.8727V78.2252C27.9833 78.0214 28.1113 77.8352 28.2569 77.6664C28.4082 77.4976 28.5712 77.3492 28.7458 77.2212C28.9611 77.0756 29.1968 76.9621 29.4529 76.8807C29.709 76.7934 29.9855 76.7497 30.2823 76.7497C30.6257 76.7497 30.9284 76.7904 31.1903 76.8719C31.458 76.9534 31.685 77.0844 31.8713 77.2648C32.0517 77.4452 32.1885 77.681 32.2816 77.972C32.3747 78.263 32.4213 78.618 32.4213 79.0371V85H34.0364V79.0022C34.0364 78.3736 33.9579 77.8323 33.8007 77.3783C33.6494 76.9185 33.4311 76.5402 33.1459 76.2433C32.8607 75.9465 32.5144 75.7282 32.107 75.5886C31.7054 75.4489 31.2572 75.379 30.7625 75.379C30.3958 75.3848 30.0466 75.4401 29.7148 75.5449C29.3889 75.6438 29.0862 75.7864 28.8069 75.9727C28.6206 76.0949 28.4431 76.2404 28.2743 76.4092C28.1113 76.5722 27.96 76.7526 27.8203 76.9505L27.7068 75.5536H26.2576V85ZM37.2492 75.5536V76.9592H40.462V83.6031H37.2492V85H45.159V83.6031H42.0772V75.5536H37.2492ZM40.2525 73.0742C40.2525 73.3361 40.3311 73.5544 40.4882 73.729C40.6512 73.9036 40.8957 73.9909 41.2216 73.9909C41.5417 73.9909 41.7833 73.9036 41.9462 73.729C42.1092 73.5544 42.1907 73.3361 42.1907 73.0742C42.1907 72.9287 42.1674 72.7948 42.1208 72.6726C42.0743 72.5504 42.0044 72.4485 41.9113 72.367C41.8356 72.2913 41.7396 72.2331 41.6232 72.1924C41.5068 72.1458 41.3729 72.1226 41.2216 72.1226C41.0703 72.1226 40.9335 72.1458 40.8113 72.1924C40.6949 72.2331 40.5988 72.2913 40.5232 72.367C40.43 72.4543 40.3602 72.5591 40.3136 72.6813C40.2729 72.8035 40.2525 72.9345 40.2525 73.0742ZM47.7258 88.6319H49.3409V84.092C49.4573 84.2201 49.5825 84.3394 49.7163 84.45C49.8502 84.5547 49.9928 84.6508 50.1441 84.7381C50.3944 84.8778 50.6738 84.9854 50.9823 85.0611C51.2966 85.1368 51.6341 85.1746 51.995 85.1746C52.5887 85.1746 53.1154 85.0524 53.5752 84.8079C54.0408 84.5635 54.4308 84.2259 54.7451 83.7952C55.0594 83.3645 55.298 82.8581 55.461 82.2761C55.624 81.6882 55.7054 81.0567 55.7054 80.3816V80.1982C55.7054 79.494 55.624 78.8479 55.461 78.2601C55.298 77.6664 55.0594 77.1571 54.7451 76.7322C54.4308 76.3074 54.0408 75.9756 53.5752 75.737C53.1096 75.4983 52.5741 75.379 51.9688 75.379C51.6254 75.379 51.3024 75.4169 50.9997 75.4925C50.7029 75.5624 50.4322 75.6671 50.1878 75.8068C50.0132 75.8999 49.8502 76.0134 49.6989 76.1473C49.5476 76.2754 49.4079 76.4209 49.2798 76.5838L49.2012 75.5536H47.7258V88.6319ZM54.0903 80.1982V80.3816C54.0903 80.8414 54.0379 81.2808 53.9332 81.6999C53.8342 82.1189 53.68 82.4885 53.4704 82.8087C53.2609 83.1288 52.9932 83.3849 52.6672 83.5769C52.3413 83.7632 51.9543 83.8563 51.5061 83.8563C51.2267 83.8563 50.9706 83.8214 50.7378 83.7515C50.5108 83.6817 50.3042 83.5857 50.1179 83.4634C49.955 83.3587 49.8095 83.2306 49.6814 83.0793C49.5534 82.928 49.4399 82.765 49.3409 82.5904V78.0418C49.4515 77.8439 49.5796 77.6635 49.7251 77.5005C49.8706 77.3376 50.0365 77.2008 50.2227 77.0902C50.3915 76.9796 50.5807 76.8952 50.7902 76.837C51.0055 76.7788 51.2384 76.7497 51.4886 76.7497C51.9426 76.7497 52.3326 76.8428 52.6585 77.0291C52.9845 77.2153 53.2551 77.4656 53.4704 77.7799C53.68 78.1 53.8342 78.4696 53.9332 78.8887C54.0379 79.3019 54.0903 79.7384 54.0903 80.1982ZM58.4643 88.6319H60.0794V84.092C60.1958 84.2201 60.321 84.3394 60.4548 84.45C60.5887 84.5547 60.7313 84.6508 60.8826 84.7381C61.1329 84.8778 61.4123 84.9854 61.7207 85.0611C62.035 85.1368 62.3726 85.1746 62.7335 85.1746C63.3271 85.1746 63.8539 85.0524 64.3137 84.8079C64.7793 84.5635 65.1693 84.2259 65.4836 83.7952C65.7979 83.3645 66.0365 82.8581 66.1995 82.2761C66.3624 81.6882 66.4439 81.0567 66.4439 80.3816V80.1982C66.4439 79.494 66.3624 78.8479 66.1995 78.2601C66.0365 77.6664 65.7979 77.1571 65.4836 76.7322C65.1693 76.3074 64.7793 75.9756 64.3137 75.737C63.8481 75.4983 63.3126 75.379 62.7073 75.379C62.3639 75.379 62.0409 75.4169 61.7382 75.4925C61.4414 75.5624 61.1707 75.6671 60.9263 75.8068C60.7517 75.8999 60.5887 76.0134 60.4374 76.1473C60.286 76.2754 60.1463 76.4209 60.0183 76.5838L59.9397 75.5536H58.4643V88.6319ZM64.8288 80.1982V80.3816C64.8288 80.8414 64.7764 81.2808 64.6716 81.6999C64.5727 82.1189 64.4185 82.4885 64.2089 82.8087C63.9994 83.1288 63.7317 83.3849 63.4057 83.5769C63.0798 83.7632 62.6927 83.8563 62.2446 83.8563C61.9652 83.8563 61.7091 83.8214 61.4763 83.7515C61.2493 83.6817 61.0427 83.5857 60.8564 83.4634C60.6935 83.3587 60.5479 83.2306 60.4199 83.0793C60.2919 82.928 60.1784 82.765 60.0794 82.5904V78.0418C60.19 77.8439 60.318 77.6635 60.4636 77.5005C60.6091 77.3376 60.7749 77.2008 60.9612 77.0902C61.13 76.9796 61.3191 76.8952 61.5287 76.837C61.744 76.7788 61.9768 76.7497 62.2271 76.7497C62.6811 76.7497 63.0711 76.8428 63.397 77.0291C63.7229 77.2153 63.9936 77.4656 64.2089 77.7799C64.4185 78.1 64.5727 78.4696 64.6716 78.8887C64.7764 79.3019 64.8288 79.7384 64.8288 80.1982ZM73.3846 85.1746C74.3043 85.1746 75.0754 84.9913 75.6982 84.6246C76.3268 84.2521 76.7983 83.8272 77.1126 83.3499L76.126 82.5817C75.8292 82.9658 75.4567 83.2743 75.0085 83.5071C74.5603 83.7399 74.0482 83.8563 73.4719 83.8563C73.0354 83.8563 72.6367 83.7748 72.2759 83.6119C71.915 83.4489 71.6065 83.2248 71.3504 82.9396C71.1002 82.6719 70.9023 82.3634 70.7568 82.0142C70.6171 81.665 70.5269 81.2604 70.4861 80.8006V80.7395H77.2348V80.0149C77.2348 79.3572 77.1504 78.7461 76.9816 78.1815C76.8186 77.6169 76.5684 77.1251 76.2308 76.7061C75.8932 76.2928 75.4683 75.9698 74.9561 75.737C74.4498 75.4983 73.8561 75.379 73.1751 75.379C72.6338 75.379 72.1042 75.4896 71.5862 75.7108C71.074 75.932 70.6171 76.2492 70.2155 76.6624C69.8081 77.0815 69.4821 77.5937 69.2377 78.199C68.9932 78.7985 68.871 79.4794 68.871 80.2419V80.6086C68.871 81.2663 68.9816 81.8745 69.2028 82.4332C69.4239 82.992 69.7324 83.4751 70.1282 83.8825C70.524 84.2899 70.9983 84.6071 71.5512 84.8341C72.11 85.0611 72.7211 85.1746 73.3846 85.1746ZM73.1751 76.7061C73.5884 76.7061 73.9434 76.7817 74.2402 76.933C74.5429 77.0844 74.7932 77.2823 74.9911 77.5267C75.1889 77.7712 75.3432 78.0622 75.4538 78.3998C75.5644 78.7315 75.6196 79.0429 75.6196 79.3339V79.4125H70.5385C70.6025 78.976 70.7131 78.5918 70.8703 78.2601C71.0332 77.9225 71.2311 77.6373 71.4639 77.4045C71.6968 77.1775 71.9587 77.0058 72.2497 76.8894C72.5407 76.7672 72.8492 76.7061 73.1751 76.7061ZM83.7739 73.2663H82.15V75.5536H79.6706V76.8021H82.15V81.9356C82.15 82.5176 82.2257 83.0153 82.377 83.4285C82.5342 83.8359 82.7466 84.1677 83.0144 84.4238C83.2821 84.6857 83.5964 84.8778 83.9572 85C84.3239 85.1164 84.7168 85.1746 85.1359 85.1746C85.3861 85.1746 85.6364 85.163 85.8867 85.1397C86.1428 85.1164 86.3843 85.0815 86.6113 85.0349C86.8383 84.9942 87.0478 84.9447 87.2399 84.8865C87.432 84.8225 87.5949 84.7497 87.7288 84.6682L87.5018 83.5246C87.4029 83.5478 87.2748 83.5769 87.1177 83.6119C86.9663 83.641 86.8034 83.6701 86.6288 83.6992C86.4483 83.7283 86.265 83.7545 86.0787 83.7777C85.8925 83.7952 85.7121 83.8039 85.5375 83.8039C85.2988 83.8039 85.0718 83.7748 84.8565 83.7166C84.6469 83.6584 84.4607 83.5566 84.2977 83.4111C84.1348 83.2714 84.0067 83.0822 83.9136 82.8436C83.8205 82.6049 83.7739 82.3023 83.7739 81.9356V76.8021H87.3709V75.5536H83.7739V73.2663ZM96.9656 82.4944C96.9656 82.6457 96.9365 82.7883 96.8783 82.9221C96.8201 83.056 96.7357 83.1782 96.6251 83.2888C96.4447 83.4693 96.1944 83.6119 95.8743 83.7166C95.5542 83.8156 95.1788 83.865 94.7481 83.865C94.4745 83.865 94.1981 83.8359 93.9187 83.7777C93.6393 83.7195 93.3861 83.6206 93.1592 83.4809C92.9263 83.3412 92.7314 83.1579 92.5742 82.9309C92.4229 82.7039 92.3356 82.4245 92.3123 82.0928H90.6972C90.6972 82.4944 90.7874 82.8814 90.9678 83.2539C91.1541 83.6264 91.4218 83.9523 91.771 84.2317C92.1144 84.5169 92.5364 84.7468 93.0369 84.9214C93.5375 85.0902 94.1079 85.1746 94.7481 85.1746C95.3068 85.1746 95.8219 85.1077 96.2934 84.9738C96.7648 84.8399 97.1693 84.6508 97.5069 84.4063C97.8445 84.1619 98.1064 83.8679 98.2927 83.5246C98.4847 83.1812 98.5808 82.7999 98.5808 82.3809C98.5808 81.9909 98.4964 81.6475 98.3276 81.3507C98.1646 81.0538 97.926 80.7919 97.6117 80.5649C97.2974 80.3438 96.9103 80.1546 96.4505 79.9974C95.9907 79.8345 95.4698 79.6919 94.8878 79.5696C94.4454 79.4823 94.0788 79.3921 93.7877 79.299C93.5025 79.2059 93.2756 79.1011 93.1068 78.9847C92.9322 78.8683 92.8099 78.7373 92.7401 78.5918C92.6702 78.4463 92.6353 78.2804 92.6353 78.0942C92.6353 77.9138 92.679 77.7392 92.7663 77.5704C92.8536 77.4016 92.9845 77.2532 93.1592 77.1251C93.3279 76.9971 93.5404 76.8952 93.7965 76.8196C94.0584 76.7439 94.361 76.7061 94.7044 76.7061C95.0362 76.7061 95.333 76.7526 95.595 76.8457C95.8627 76.9389 96.0897 77.0611 96.2759 77.2124C96.4622 77.3638 96.6077 77.5384 96.7125 77.7363C96.8172 77.9283 96.8696 78.1262 96.8696 78.3299H98.4847C98.4847 77.9167 98.3945 77.5325 98.2141 77.1775C98.0395 76.8166 97.7892 76.5023 97.4633 76.2346C97.1373 75.9669 96.7416 75.7573 96.2759 75.606C95.8103 75.4547 95.2865 75.379 94.7044 75.379C94.1632 75.379 93.6655 75.4518 93.2115 75.5973C92.7634 75.7428 92.3763 75.9407 92.0504 76.191C91.7244 76.4412 91.4713 76.7352 91.2908 77.0727C91.1104 77.4045 91.0202 77.7624 91.0202 78.1466C91.0202 78.5365 91.1075 78.8799 91.2821 79.1768C91.4567 79.4678 91.7041 79.721 92.0242 79.9363C92.3385 80.1575 92.7168 80.3467 93.1592 80.5038C93.6073 80.661 94.102 80.7948 94.6433 80.9054C95.0857 80.9927 95.4553 81.0917 95.7521 81.2022C96.0489 81.307 96.2876 81.4234 96.468 81.5515C96.6484 81.6795 96.7765 81.8221 96.8521 81.9793C96.9278 82.1306 96.9656 82.3023 96.9656 82.4944Z" fill="#6C99BB"/>
</svg>
